# xmcd CD database file
#
# Track frame offsets:
#	150
#	20457
#	47630
#	67864
#	83610
#
# Disc length: 1376 seconds
#
# Revision: 0
# Processed by: cddbd v1.5.2PL0 Copyright (c) Steve Scherf et al.
# Submitted via: CDex 1.99.1
#
DISCID=2f055e05
DTITLE=Queen Delphine and the Crown Jewels - Come and Get It
DYEAR=2015
DGENRE=Blues
TTITLE0=My Cat Got Nine Lives
TTITLE1=I'm a Woman
TTITLE2=What Would I Do
TTITLE3=Kindness for Weakness
TTITLE4=Lammy's Blues
EXTD=YEAR: 2015
EXTT0=
EXTT1=
EXTT2=
EXTT3=
EXTT4=
PLAYORDER=
